<?xml version="1.0" standalone="no"?>
<!DOCTYPE svg PUBLIC "-//W3C//DTD SVG 20010904//EN"
 "http://www.w3.org/TR/2001/REC-SVG-20010904/DTD/svg10.dtd">
<svg version="1.0" xmlns="http://www.w3.org/2000/svg"
 width="512.000000pt" height="512.000000pt" viewBox="0 0 512.000000 512.000000"
 preserveAspectRatio="xMidYMid meet">
<metadata>
Created by potrace 1.14, written by Peter Selinger 2001-2017
</metadata>
<g transform="translate(0.000000,512.000000) scale(0.100000,-0.100000)"
fill="#000000" stroke="none">
<path d="M3740 4922 c0 -7 -4 -10 -10 -7 -5 3 -10 1 -10 -4 0 -6 -5 -11 -11
-11 -5 0 -7 5 -4 11 4 6 -2 5 -14 -3 -12 -7 -21 -17 -21 -22 0 -4 -8 -2 -17 5
-10 8 -14 9 -10 2 4 -6 3 -14 -3 -18 -5 -3 -10 0 -10 7 -1 7 -8 1 -16 -14 -13
-25 -25 -33 -46 -29 -5 0 -8 -6 -8 -14 0 -8 -3 -15 -8 -15 -4 0 -12 -10 -17
-22 -6 -13 -16 -22 -22 -21 -7 1 -9 -6 -5 -19 3 -15 2 -19 -7 -14 -6 4 -11 4
-10 -1 5 -27 -2 -53 -13 -47 -8 5 -9 2 -5 -9 3 -9 2 -19 -4 -23 -5 -3 -7 -15
-4 -25 4 -11 1 -27 -7 -36 -11 -15 -11 -16 5 -10 12 5 16 3 11 -5 -10 -15 -11
-57 -2 -90 4 -17 2 -30 -4 -34 -7 -5 -8 -2 -3 6 5 8 4 11 -3 6 -15 -9 -3 -38
12 -29 6 3 2 -4 -9 -17 -11 -13 -15 -20 -9 -17 7 4 15 0 18 -9 3 -8 2 -12 -4
-9 -6 3 -10 -3 -10 -15 0 -14 4 -19 13 -14 6 4 3 -3 -8 -16 -11 -13 -15 -20
-9 -17 15 9 27 -20 12 -29 -7 -5 -8 -2 -3 6 5 8 4 11 -3 6 -15 -9 -3 -38 12
-29 6 3 2 -4 -9 -17 -11 -13 -15 -20 -9 -17 7 4 15 0 18 -9 3 -8 2 -12 -4 -9
-6 3 -10 -3 -10 -15 0 -14 4 -19 13 -14 6 4 4 -2 -6 -13 -9 -11 -14 -23 -10
-27 13 -13 13 -49 1 -64 -8 -10 -9 -13 -2 -9 7 4 15 0 18 -9 4 -10 2 -13 -6
-8 -7 5 -9 2 -5 -8 3 -9 0 -21 -6 -28 -9 -10 -9 -11 0 -6 9 5 11 -12 9 -68 -1
-41 1 -73 5 -71 10 7 5 -22 -6 -32 -4 -4 -5 -2 0 6 6 10 4 12 -4 7 -9 -6 -8
-13 6 -29 10 -12 12 -17 4 -12 -11 6 -13 4 -8 -7 3 -9 0 -21 -6 -28 -9 -10 -9
-11 0 -6 9 5 11 -12 9 -68 -1 -41 1 -73 5 -71 10 7 5 -22 -6 -32 -4 -4 -5 -2
0 6 5 9 4 12 -3 7 -13 -8 -5 -36 12 -36 6 0 3 -5 -7 -11 -14 -8 -16 -14 -6
-25 6 -8 9 -17 6 -21 -4 -3 -2 -12 4 -19 7 -8 6 -14 -2 -20 -8 -5 -9 -3 -4 6
5 8 4 11 -3 6 -15 -9 -3 -38 12 -29 6 3 2 -4 -9 -17 -11 -13 -15 -20 -9 -17 7
4 15 0 18 -9 3 -8 2 -12 -4 -9 -6 3 -10 -3 -10 -15 0 -14 4 -19 13 -14 6 4 3
-3 -8 -16 -11 -13 -15 -20 -9 -17 15 9 27 -20 12 -29 -7 -5 -8 -2 -3 6 5 8 4
11 -3 6 -15 -9 -3 -38 12 -29 6 3 2 -4 -9 -17 -11 -13 -15 -20 -9 -17 7 4 15
0 18 -9 3 -8 2 -12 -4 -9 -6 3 -10 -3 -10 -15 0 -14 4 -19 13 -14 6 4 4 -2 -6
-13 -12 -14 -15 -23 -8 -28 6 -3 9 -29 7 -60 -2 -30 0 -53 4 -50 11 7 6 -22
-5 -32 -4 -4 -5 -2 0 6 6 10 4 12 -4 7 -9 -6 -8 -13 6 -29 10 -12 12 -17 4
-12 -11 6 -13 4 -8 -7 3 -9 0 -21 -6 -28 -10 -10 -8 -12 7 -6 18 6 18 5 1 -20
-9 -15 -12 -23 -6 -20 15 10 14 -17 -1 -33 -10 -11 -10 -13 0 -7 7 4 12 2 12
-6 0 -8 -6 -20 -12 -27 -10 -11 -10 -13 0 -7 7 4 12 2 12 -6 0 -8 -6 -20 -12
-27 -10 -11 -10 -13 0 -7 7 4 12 2 12 -6 0 -8 -6 -20 -12 -27 -11 -11 -10 -13
3 -8 13 4 15 1 12 -14 -3 -10 -10 -16 -16 -12 -5 3 -7 2 -4 -4 3 -5 8 -21 11
-36 3 -20 1 -25 -14 -24 -10 1 -16 5 -14 9 3 4 1 8 -4 8 -6 0 -19 15 -31 33
-11 17 -21 27 -21 21 0 -5 6 -16 13 -24 10 -12 9 -12 -5 -1 -10 7 -18 20 -18
27 0 8 -6 13 -12 12 -7 -2 -12 2 -11 9 2 6 -7 15 -18 18 -12 4 -30 16 -40 26
-11 11 -25 17 -31 13 -7 -4 -8 -3 -4 5 4 6 0 14 -11 18 -10 4 -25 15 -34 24
-12 14 -19 15 -27 7 -9 -9 -12 -8 -12 6 0 12 -5 16 -16 12 -8 -3 -12 -2 -9 4
3 6 -1 10 -10 10 -10 0 -13 5 -9 13 4 6 4 9 -1 5 -4 -4 -15 -2 -23 5 -13 10
-14 9 -7 -2 4 -7 -6 -4 -22 8 -16 12 -38 24 -49 25 -10 2 -18 9 -16 17 2 9 0
10 -11 1 -17 -14 -27 -6 -20 16 4 14 3 14 -5 3 -7 -9 -16 -11 -28 -6 -11 5
-23 7 -28 6 -5 -1 -6 5 -3 13 5 12 1 13 -18 6 -24 -9 -29 -6 -26 13 1 5 -3 6
-9 2 -6 -4 -18 -1 -27 7 -12 9 -15 9 -9 1 4 -7 2 -13 -3 -13 -6 0 -11 5 -11
11 0 6 -9 9 -20 6 -11 -3 -20 -1 -20 4 0 11 -23 7 -32 -6 -4 -6 -8 -2 -8 8 0
10 -4 16 -9 13 -5 -4 -12 0 -14 6 -4 10 -6 10 -6 1 -1 -7 -8 -13 -16 -13 -8 0
-15 6 -16 13 0 6 -4 3 -9 -8 -7 -17 -9 -17 -9 -3 -1 12 -6 15 -18 11 -11 -4
-14 -3 -9 5 5 8 2 10 -8 6 -9 -3 -16 -11 -17 -18 0 -6 -4 -2 -9 9 -6 13 -9 15
-9 5 -1 -12 -3 -12 -10 -1 -7 10 -13 11 -30 2 -14 -8 -21 -8 -21 -1 0 12 -22
9 -32 -5 -5 -6 -8 -5 -8 3 0 6 -7 12 -16 12 -8 0 -12 -4 -9 -10 3 -6 -1 -7 -9
-4 -9 3 -16 11 -17 18 0 6 -4 2 -9 -9 -5 -11 -9 -15 -9 -9 -1 12 -42 11 -60
-1 -6 -3 -11 -1 -11 5 0 6 -5 8 -12 4 -6 -4 -26 -9 -45 -11 -27 -3 -33 0 -33
15 0 10 -6 24 -12 31 -11 11 -10 13 0 7 8 -5 7 4 -5 28 -9 20 -23 36 -30 36
-7 0 -13 5 -13 12 0 6 -3 8 -7 5 -3 -4 -12 -2 -20 4 -10 9 -13 8 -13 -1 0 -7
-7 -10 -16 -6 -10 4 -13 2 -8 -6 5 -7 2 -9 -9 -5 -9 3 -21 -1 -29 -11 -12 -16
-11 -16 7 -2 20 14 20 14 1 -7 -10 -13 -24 -20 -30 -16 -6 4 -4 -2 4 -12 8
-10 11 -16 5 -13 -5 3 -16 0 -23 -8 -7 -8 -9 -14 -5 -14 4 -1 -2 -9 -14 -19
-12 -10 -19 -21 -16 -25 4 -3 -2 -6 -13 -6 -16 0 -17 -2 -4 -10 13 -9 7 -14
-12 -11 -8 1 -12 -15 -9 -31 0 -5 -6 -8 -16 -8 -9 0 -14 -3 -10 -6 9 -9 -16
-33 -28 -26 -5 3 -3 -3 5 -13 12 -15 12 -17 1 -10 -11 6 -13 4 -8 -9 6 -14 3
-16 -14 -11 -14 5 -19 3 -15 -3 3 -6 -1 -18 -10 -26 -8 -9 -12 -16 -8 -16 4 0
-7 -12 -24 -26 -18 -15 -32 -36 -32 -46 0 -11 -4 -16 -10 -13 -5 3 -10 1 -10
-6 0 -6 -8 -18 -17 -25 -11 -8 -13 -13 -6 -14 7 0 10 -7 7 -15 -4 -8 -9 -13
-13 -11 -4 3 -7 -4 -8 -14 -1 -11 2 -22 8 -25 5 -3 6 2 3 12 -5 14 -4 15 4 4
6 -8 8 -19 6 -26 -3 -6 3 -18 12 -26 16 -12 17 -12 9 1 -9 15 33 -16 47 -35 5
-6 8 -4 8 5 0 9 3 11 8 5 12 -17 56 -51 48 -38 -5 9 -2 11 8 7 9 -3 16 -11 16
-16 0 -6 7 -8 15 -4 9 3 15 0 15 -10 0 -8 5 -12 11 -9 6 4 22 -4 36 -16 15
-13 23 -18 18 -11 -6 11 -3 12 14 3 11 -7 21 -14 21 -17 0 -3 -5 -2 -12 2 -6
4 -8 3 -5 -4 4 -5 17 -8 29 -4 16 4 19 2 13 -8 -6 -10 -4 -12 8 -7 9 3 16 3
16 -1 -3 -19 2 -23 16 -12 11 9 15 9 15 1 0 -7 4 -9 10 -6 5 3 7 0 5 -7 -4 -9
3 -14 16 -15 12 -1 25 -6 28 -11 3 -5 18 -12 34 -16 15 -3 27 -11 27 -17 0 -6
4 -7 10 -4 6 3 10 0 10 -7 0 -10 2 -10 9 0 11 17 21 17 32 0 7 -10 9 -10 9 0
0 6 8 12 17 12 9 0 13 3 10 7 -4 3 1 12 11 19 11 9 13 13 4 14 -7 0 -10 5 -7
10 4 6 11 7 17 4 7 -4 7 0 0 12 -5 11 -8 27 -7 37 2 9 -1 17 -7 17 -5 0 -6 9
-3 21 5 16 4 19 -6 14 -9 -6 -11 -3 -6 9 4 10 7 20 7 22 0 3 5 2 10 -1 6 -3
10 -2 10 3 0 6 7 13 16 16 10 4 13 2 8 -6 -5 -8 -2 -9 9 -5 10 4 17 1 17 -5 0
-7 7 -3 15 8 8 10 15 14 15 8 0 -6 10 -10 23 -9 12 1 33 -2 46 -7 22 -8 23 -7
10 9 -13 17 -13 17 12 1 18 -12 30 -13 43 -6 14 8 17 7 12 -1 -7 -11 5 -15 32
-12 6 1 12 -4 12 -11 0 -10 3 -9 9 1 8 12 12 12 26 -2 20 -20 29 -22 20 -4 -4
6 1 3 9 -7 9 -11 16 -15 16 -9 0 15 25 10 47 -8 30 -26 47 -34 39 -18 -4 8 -1
6 7 -3 10 -13 16 -15 25 -6 9 9 12 8 12 -6 0 -9 5 -14 10 -11 6 3 10 1 10 -4
0 -6 7 -11 16 -11 8 0 12 -5 8 -11 -4 -7 2 -6 17 2 22 11 23 11 11 -4 -11 -13
-10 -15 9 -10 15 4 20 3 15 -5 -4 -8 3 -16 19 -22 14 -5 23 -14 20 -20 -3 -6
1 -7 9 -4 11 4 16 0 16 -10 0 -9 6 -15 13 -14 6 2 11 -3 9 -11 -3 -12 -1 -12
14 0 12 9 15 9 10 2 -4 -7 -2 -13 3 -13 6 0 11 -6 11 -14 0 -8 5 -18 12 -22 7
-5 8 -3 3 5 -5 10 -2 10 13 0 12 -7 19 -21 17 -31 -2 -10 0 -16 4 -13 5 3 12
-2 15 -10 3 -8 11 -14 17 -13 6 2 13 -6 15 -17 1 -11 8 -21 13 -23 6 -2 11
-10 11 -18 0 -8 5 -14 10 -14 6 0 10 -5 10 -11 0 -16 26 -39 36 -31 5 4 2 -1
-5 -11 -9 -11 -10 -17 -2 -17 6 0 11 -7 11 -15 0 -8 6 -15 13 -15 8 0 7 -4 -3
-10 -13 -9 -13 -10 0 -11 8 -1 19 -1 24 0 5 1 4 -5 -4 -13 -8 -11 -9 -16 -1
-16 6 0 11 -8 11 -18 0 -10 6 -24 13 -31 10 -11 9 -12 -3 -6 -12 7 -13 6 -3
-7 7 -8 9 -19 5 -23 -4 -5 -2 -5 4 -2 16 9 25 -18 11 -32 -8 -8 -8 -11 2 -11
8 0 11 -6 7 -15 -3 -8 0 -15 6 -15 9 0 9 -3 0 -12 -9 -9 -8 -16 6 -32 12 -14
13 -17 2 -11 -12 7 -13 6 -3 -6 10 -12 10 -18 0 -29 -9 -10 -9 -11 1 -6 9 6
11 1 8 -18 -3 -14 0 -29 6 -32 7 -5 8 -2 3 6 -6 9 -4 11 5 5 10 -6 9 -11 -4
-21 -13 -9 -14 -14 -5 -20 9 -5 7 -10 -7 -15 -17 -7 -17 -8 -1 -8 9 -1 17 -6
17 -12 0 -5 -4 -8 -8 -5 -4 2 -8 -4 -8 -14 0 -10 3 -17 7 -14 4 2 5 -5 2 -16
-3 -11 -9 -17 -14 -14 -5 3 -6 -2 -3 -10 3 -9 11 -16 18 -16 6 0 4 -5 -4 -10
-8 -5 -10 -10 -5 -10 6 0 3 -5 -5 -10 -11 -7 -11 -10 -2 -10 7 0 10 -5 7 -10
-4 -6 -9 -8 -13 -6 -4 2 -7 -9 -8 -25 -1 -16 3 -26 8 -22 6 3 2 -6 -7 -20 -9
-15 -14 -31 -10 -37 3 -5 1 -10 -5 -10 -6 0 -9 -4 -5 -9 3 -5 1 -12 -5 -16 -6
-4 -8 -11 -5 -16 4 -5 1 -9 -5 -9 -6 0 -9 -4 -5 -10 3 -5 -4 -19 -16 -31 -20
-20 -20 -22 -3 -15 16 6 15 3 -5 -18 -13 -13 -20 -29 -17 -34 3 -6 -1 -13 -10
-16 -9 -4 -14 -9 -11 -12 8 -8 -16 -33 -25 -27 -5 2 -8 -1 -8 -6 0 -6 5 -11
11 -11 5 0 7 -5 4 -10 -4 -6 -10 -8 -15 -5 -4 3 -14 -3 -21 -12 -12 -14 -12
-16 1 -8 12 7 13 6 3 -7 -7 -8 -10 -18 -6 -22 4 -4 -1 -4 -10 0 -12 4 -17 2
-15 -7 2 -8 -3 -13 -9 -12 -7 2 -13 -4 -13 -13 0 -9 -5 -12 -12 -8 -9 6 -9 3
0 -9 12 -14 11 -16 -6 -12 -16 3 -20 -1 -17 -17 3 -12 0 -18 -8 -16 -13 5 -49
-27 -40 -35 2 -3 -1 -16 -8 -29 -17 -30 -20 -50 -6 -41 6 4 8 0 4 -9 -3 -9 0
-21 6 -27 6 -6 7 -11 2 -11 -5 0 0 -7 11 -16 10 -8 12 -12 4 -9 -8 4 -4 -3 10
-16 14 -13 19 -20 10 -15 -8 5 2 -7 23 -26 26 -24 34 -38 25 -41 -8 -3 -6 -6
6 -6 11 -1 17 -4 13 -7 -8 -8 16 -33 25 -27 4 2 5 -3 2 -11 -4 -9 1 -18 10
-22 9 -3 16 -14 16 -23 0 -14 2 -14 10 -1 6 10 10 11 10 3 0 -7 11 -15 25 -19
14 -3 23 -9 21 -13 -2 -3 9 -6 24 -6 15 0 26 4 22 9 -3 5 2 7 11 3 9 -3 19 -2
23 4 3 6 13 8 21 5 8 -3 11 -1 8 4 -3 6 -1 10 5 10 6 0 8 4 5 10 -3 5 0 10 8
10 8 0 17 6 20 14 3 8 16 20 29 27 13 6 20 8 16 4 -4 -4 -3 -16 2 -26 7 -12 6
-20 -2 -25 -7 -5 -8 -3 -3 6 5 8 4 11 -3 6 -6 -4 -9 -13 -6 -21 4 -8 11 -12
18 -8 6 4 4 -1 -4 -11 -16 -21 -23 -49 -9 -40 13 7 11 -20 -2 -33 -8 -8 -7
-13 2 -18 8 -6 10 -4 4 5 -6 9 -4 11 4 5 8 -4 9 -11 3 -17 -5 -5 -6 -26 -2
-48 5 -28 4 -38 -4 -34 -6 3 -2 -2 8 -10 12 -9 14 -16 7 -16 -9 0 -8 -5 3 -16
19 -19 21 -28 4 -18 -7 4 -5 -2 5 -14 11 -11 16 -26 12 -31 -3 -6 0 -11 7 -11
7 0 19 -14 26 -30 8 -17 18 -28 23 -24 5 3 9 -1 9 -9 0 -8 18 -22 39 -32 22
-10 42 -23 45 -30 2 -7 16 -11 30 -10 14 2 24 0 21 -5 -3 -4 2 -10 10 -14 8
-3 15 -1 15 4 0 6 10 6 26 0 34 -13 47 -13 38 3 -5 7 0 6 11 -3 10 -8 19 -15
20 -15 1 0 10 7 20 15 17 13 18 13 10 0 -7 -12 -6 -13 6 -3 12 10 18 10 28 0
10 -9 11 -8 5 7 -5 14 -4 17 5 12 7 -5 21 0 33 11 12 10 18 12 14 6 -4 -7 -2
-13 3 -13 6 0 11 6 11 14 0 9 7 13 19 11 13 -2 18 1 15 9 -3 8 4 16 16 19 12
3 19 10 15 16 -4 7 0 8 11 4 14 -5 16 -2 11 16 -4 17 -3 20 8 11 9 -8 14 -6
19 5 4 11 2 14 -7 10 -6 -4 -3 2 9 12 11 10 19 24 17 30 -2 6 1 14 6 18 6 3
11 15 11 26 0 13 4 18 13 13 6 -4 9 -4 5 0 -4 5 -3 19 3 33 5 13 5 22 1 19 -4
-2 -8 4 -8 14 0 10 4 16 8 14 4 -3 8 0 8 5 0 6 -6 11 -12 11 -8 0 -9 3 -3 8
12 8 13 42 2 60 -6 8 -2 12 10 13 10 0 13 3 6 6 -7 2 -13 14 -13 24 0 11 4 17
10 14 6 -3 7 1 4 9 -3 9 -9 14 -13 11 -9 -5 -7 32 2 41 10 10 9 26 -2 20 -4
-3 -6 6 -3 19 2 14 8 22 13 19 5 -3 6 2 3 10 -3 9 -11 13 -17 9 -6 -3 -7 -1
-3 6 4 6 10 23 12 38 5 24 3 25 -13 13 -15 -12 -16 -12 -5 0 6 8 12 22 12 33
0 10 4 15 10 12 6 -3 7 1 4 9 -3 9 -9 14 -13 12 -4 -3 -7 4 -7 14 0 10 4 16 8
14 4 -3 8 2 8 11 0 10 -5 13 -12 9 -10 -6 -10 -5 -1 8 7 8 10 18 6 22 -11 10
-12 37 -2 30 5 -3 9 2 9 11 0 10 -5 13 -12 9 -10 -6 -10 -5 -1 8 7 8 10 18 6
22 -11 10 -12 37 -2 30 5 -3 9 2 9 11 0 10 -5 13 -12 9 -10 -6 -10 -5 -1 8 7
8 10 18 6 22 -11 10 -12 37 -2 30 5 -3 9 2 9 11 0 10 -5 13 -12 9 -10 -6 -10
-5 -1 8 7 8 10 18 6 22 -11 10 -12 37 -2 30 5 -3 9 2 9 11 0 10 -5 13 -12 9
-10 -6 -10 -5 -1 8 7 8 10 18 6 22 -11 10 -12 37 -2 30 5 -3 9 2 9 11 0 10 -5
13 -12 9 -10 -6 -10 -5 -1 8 7 8 10 18 6 22 -11 10 -12 37 -2 30 5 -3 9 2 9
11 0 10 -5 13 -12 9 -10 -6 -10 -5 -1 8 7 8 10 18 6 22 -11 10 -12 37 -2 30 5
-3 9 2 9 11 0 10 -5 13 -12 9 -10 -6 -10 -5 -1 7 9 11 9 19 2 26 -8 8 -8 13 0
17 6 4 11 12 11 17 0 6 -5 7 -11 3 -8 -5 -8 -1 0 14 9 17 8 23 -6 32 -16 10
-16 11 -1 6 15 -4 16 0 11 26 -4 22 -3 29 5 24 8 -5 10 -2 6 8 -3 9 -9 14 -13
11 -9 -5 -7 32 2 41 10 10 9 26 -2 20 -4 -3 -6 6 -3 19 2 14 8 22 13 19 5 -3
6 2 3 10 -3 9 -11 13 -17 9 -6 -3 -7 -1 -3 6 4 6 10 23 12 38 5 24 3 25 -13
13 -15 -12 -16 -12 -5 0 6 8 12 22 12 33 0 10 4 15 10 12 6 -3 7 1 4 9 -3 9
-9 14 -13 11 -9 -5 -7 32 2 41 10 10 9 26 -2 20 -4 -3 -6 6 -3 19 2 14 8 22
13 19 5 -3 6 2 3 10 -3 9 -11 13 -17 9 -6 -3 -7 -1 -3 6 4 6 10 23 12 38 5 24
3 25 -13 13 -15 -12 -16 -12 -5 0 6 8 12 22 12 33 0 10 4 15 10 12 6 -3 7 1 4
9 -3 9 -9 14 -13 12 -4 -3 -7 4 -7 14 0 10 4 16 8 14 4 -3 8 2 8 11 0 10 -5
13 -12 9 -10 -6 -10 -5 -1 8 7 8 10 18 6 22 -11 10 -12 37 -2 30 5 -3 9 2 9
11 0 10 -5 13 -12 9 -10 -6 -10 -5 -1 8 7 8 10 18 6 22 -11 10 -12 37 -2 30 5
-3 9 2 9 11 0 10 -5 13 -12 9 -10 -6 -10 -5 -1 8 7 8 10 18 6 22 -11 10 -12
37 -2 30 5 -3 9 2 9 11 0 10 -5 13 -12 9 -10 -6 -10 -5 -1 8 7 8 10 18 6 22
-11 10 -12 37 -2 30 5 -3 9 2 9 11 0 10 -5 13 -12 9 -10 -6 -10 -5 -1 8 7 8
10 18 6 22 -11 10 -12 37 -2 30 5 -3 9 2 9 11 0 10 -5 13 -12 9 -10 -6 -10 -5
-1 8 7 8 10 18 6 22 -11 10 -12 37 -2 30 5 -3 9 2 9 11 0 10 -5 13 -12 9 -10
-6 -10 -5 -1 8 7 8 10 18 6 22 -11 10 -12 37 -2 30 5 -3 9 2 9 11 0 10 -5 13
-12 9 -10 -6 -10 -5 -1 7 9 11 9 19 2 26 -8 8 -8 13 0 17 6 4 11 12 11 17 0 6
-5 7 -11 3 -8 -5 -8 -1 0 14 9 17 8 23 -6 32 -16 10 -16 11 -1 6 15 -4 16 0
11 26 -4 22 -3 29 5 24 8 -5 10 -2 6 8 -3 9 -9 14 -13 11 -9 -5 -7 32 2 41 10
10 9 26 -2 20 -4 -3 -6 6 -3 19 2 14 8 22 13 19 5 -3 6 2 3 10 -3 9 -11 13
-17 9 -6 -3 -7 -1 -3 6 4 6 10 23 12 38 5 24 3 25 -13 13 -15 -12 -16 -12 -5
0 6 8 12 22 12 33 0 10 4 15 10 12 6 -3 7 1 4 9 -3 9 -9 14 -13 11 -9 -5 -7
32 2 41 10 10 9 26 -2 20 -4 -3 -6 6 -3 19 2 14 8 22 13 19 5 -3 6 2 3 10 -3
9 -11 13 -17 9 -6 -3 -7 -1 -3 6 4 6 10 23 12 38 5 24 3 25 -13 13 -15 -12
-16 -12 -5 0 6 8 12 22 12 33 0 10 4 15 10 12 6 -3 7 1 4 9 -3 9 -9 14 -13 12
-4 -3 -7 4 -7 14 0 10 4 16 8 14 4 -3 8 2 8 11 0 10 -5 13 -12 9 -10 -6 -10
-5 -1 8 7 8 10 18 6 22 -11 10 -12 37 -2 30 5 -3 9 2 9 11 0 10 -5 13 -12 9
-10 -6 -10 -5 -1 8 7 8 10 18 6 22 -11 10 -12 37 -2 30 5 -3 9 2 9 11 0 10 -5
13 -12 9 -10 -6 -10 -5 -1 8 7 8 10 18 6 22 -11 10 -12 37 -2 30 5 -3 9 2 9
11 0 10 -5 13 -12 9 -10 -6 -10 -5 -1 8 7 8 10 18 6 22 -11 10 -12 37 -2 30 5
-3 9 2 9 11 0 10 -5 13 -12 9 -10 -6 -10 -5 -1 8 7 8 10 18 6 22 -11 10 -12
37 -2 30 5 -3 9 2 9 11 0 10 -5 13 -12 9 -10 -6 -10 -5 -1 8 7 8 10 18 6 22
-11 10 -12 37 -2 30 5 -3 9 2 9 11 0 10 -5 13 -12 9 -10 -6 -10 -5 -1 8 7 8
10 18 6 22 -11 10 -12 37 -2 30 5 -3 9 2 9 11 0 10 -5 13 -12 9 -10 -6 -10 -5
-1 7 9 11 9 19 2 26 -8 8 -8 13 0 17 6 4 11 12 11 17 0 6 -5 7 -11 3 -8 -5 -8
-1 0 14 9 17 8 23 -6 32 -16 10 -16 11 -1 6 15 -4 16 0 11 26 -4 22 -3 29 5
24 8 -5 10 -2 6 8 -3 9 -9 14 -13 11 -9 -5 -7 32 2 41 10 10 9 26 -2 20 -4 -3
-6 6 -3 19 2 14 8 22 13 19 5 -3 6 2 3 10 -3 9 -11 13 -17 9 -6 -3 -7 -1 -3 6
4 6 10 23 12 38 5 24 3 25 -13 13 -15 -12 -16 -12 -5 0 6 8 12 22 12 33 0 10
4 15 10 12 6 -3 7 1 4 9 -3 9 -9 14 -13 11 -9 -5 -7 32 2 41 10 10 9 26 -1 20
-5 -3 -9 1 -9 9 0 8 4 12 9 9 4 -3 8 0 8 5 0 6 -5 11 -11 11 -5 0 -7 5 -4 10
4 6 1 17 -5 25 -7 8 -9 15 -6 15 4 0 2 9 -4 20 -9 16 -8 19 7 14 10 -2 8 1 -4
7 -21 11 -29 28 -23 54 1 6 -2 7 -6 3 -4 -5 -15 6 -25 22 -11 17 -26 30 -34
30 -10 0 -13 5 -9 12 5 8 2 9 -11 4 -15 -5 -16 -4 -5 9 11 13 10 14 -3 10 -9
-4 -24 3 -37 17 -13 13 -19 16 -15 8 8 -13 6 -13 -8 -2 -9 8 -20 11 -25 8 -13
-8 -34 18 -24 30 4 4 -1 2 -11 -6 -15 -11 -20 -11 -27 -1 -5 10 -9 10 -15 2
-5 -9 -10 -9 -20 -1 -10 8 -14 7 -18 -2 -4 -10 -6 -10 -6 1 -1 11 -4 11 -17 0
-13 -10 -17 -10 -25 2 -6 10 -9 11 -9 1z m-1897 -2077 c-3 -9 -8 -14 -10 -11
-3 3 -2 9 2 15 9 16 15 13 8 -4z"/>
<path d="M1473 2775 c0 -8 5 -11 10 -8 6 3 7 1 3 -6 -4 -6 -11 -9 -16 -6 -16
10 -48 -17 -42 -34 5 -14 4 -14 -14 -1 -10 8 -16 10 -12 6 5 -5 -1 -15 -12
-23 -11 -8 -20 -21 -20 -29 0 -8 -4 -12 -10 -9 -5 3 -10 -1 -10 -9 0 -9 -5
-16 -11 -16 -5 0 -7 -6 -3 -12 5 -8 2 -8 -10 1 -9 8 -16 10 -15 5 4 -23 -2
-45 -11 -39 -5 3 -10 -1 -10 -9 0 -9 -5 -16 -11 -16 -5 0 -7 -4 -4 -10 5 -9
-7 -14 -26 -12 -4 1 -4 -8 -1 -20 3 -13 1 -19 -5 -15 -10 6 -27 -27 -24 -46 1
-5 -3 -6 -8 -2 -12 7 -34 -32 -26 -45 3 -6 0 -10 -8 -10 -8 0 -18 -7 -21 -16
-4 -10 -2 -13 7 -9 6 4 4 0 -5 -7 -9 -8 -20 -26 -23 -41 -4 -15 -11 -27 -16
-27 -5 0 -9 -9 -9 -21 0 -11 -4 -18 -9 -15 -5 4 -7 -4 -3 -16 4 -16 2 -19 -9
-13 -12 8 -12 6 0 -9 12 -15 12 -17 0 -14 -9 2 -14 -5 -13 -20 1 -16 -3 -21
-12 -18 -10 4 -11 -1 -4 -20 7 -17 7 -23 0 -19 -6 3 -10 0 -11 -7 -2 -43 -9
-73 -18 -76 -8 -3 -8 -10 0 -23 5 -11 6 -19 2 -18 -20 3 -24 -2 -12 -18 12
-15 12 -16 -3 -10 -15 5 -16 2 -8 -18 7 -17 6 -25 -1 -25 -7 0 -9 -11 -7 -25
3 -14 1 -25 -6 -25 -7 0 -6 -4 2 -9 10 -6 10 -10 -3 -21 -12 -10 -13 -16 -4
-26 9 -11 8 -14 -2 -14 -10 0 -10 -3 -1 -12 14 -14 16 -32 4 -24 -5 3 -9 -1
-9 -9 0 -8 3 -15 7 -15 4 0 7 -7 7 -15 0 -12 -3 -12 -16 -2 -14 11 -14 10 -1
-13 8 -14 14 -32 14 -40 -1 -8 -2 -21 -3 -28 0 -7 -7 -10 -13 -7 -7 4 -6 1 2
-7 17 -15 22 -61 6 -50 -6 3 -3 -7 8 -22 10 -16 13 -25 7 -22 -6 4 -11 2 -11
-3 0 -6 6 -11 13 -11 7 0 8 -3 2 -8 -12 -9 -13 -48 -1 -59 5 -5 6 -2 1 7 -5 8
-4 12 0 7 14 -12 15 -38 2 -30 -9 5 -9 3 -1 -8 6 -8 10 -22 9 -31 -2 -10 1
-18 6 -18 5 0 9 -5 9 -11 0 -5 -4 -7 -10 -4 -6 3 -7 -1 -4 -9 3 -9 11 -13 17
-9 6 4 7 1 2 -7 -4 -7 -2 -16 6 -21 9 -5 10 -9 2 -9 -13 0 -12 -25 2 -37 4 -4
5 -2 0 6 -5 9 -4 12 3 7 6 -3 9 -15 7 -26 -2 -11 1 -20 7 -20 6 0 8 -9 5 -20
-3 -10 0 -21 6 -23 5 -1 12 -14 14 -27 2 -13 9 -28 16 -32 6 -4 8 -8 3 -8 -5
0 -2 -8 5 -17 12 -15 12 -16 -1 -8 -8 4 -5 -2 8 -14 12 -12 22 -28 22 -36 0
-28 1 -30 20 -37 12 -5 17 -13 14 -23 -3 -8 -1 -15 5 -15 6 0 10 -3 9 -7 -3
-15 14 -43 23 -38 4 3 6 -4 4 -16 -3 -15 0 -19 11 -15 9 3 12 1 9 -4 -3 -6 -1
-10 6 -10 9 0 9 -3 0 -14 -10 -12 -8 -13 11 -8 20 5 21 3 11 -10 -15 -18 -7
-29 15 -21 9 4 13 2 9 -4 -7 -12 37 -65 47 -56 3 3 4 -4 1 -15 -3 -16 0 -19
12 -15 12 5 14 3 8 -7 -6 -10 -4 -12 8 -7 9 3 16 3 16 -1 -3 -18 2 -32 12 -32
6 0 17 -7 25 -15 12 -12 12 -15 2 -16 -7 -1 -2 -4 12 -8 15 -5 24 -14 24 -25
-1 -12 3 -15 17 -11 13 4 19 2 19 -9 0 -9 7 -16 16 -16 8 0 12 -4 9 -10 -3 -5
3 -10 14 -10 12 0 21 -7 21 -15 0 -8 6 -15 13 -15 8 0 24 -11 37 -25 19 -20
26 -23 39 -13 9 7 13 9 9 4 -9 -11 16 -36 37 -36 9 0 13 -5 9 -11 -4 -8 0 -9
15 -4 15 4 21 3 19 -7 -2 -7 3 -12 10 -10 6 1 12 -3 12 -9 0 -5 4 -7 10 -4 5
3 10 0 10 -7 0 -9 3 -9 10 2 8 13 10 12 10 -3 0 -10 5 -15 11 -12 6 4 22 -4
36 -16 15 -13 23 -18 19 -11 -4 6 -2 12 3 12 6 0 11 -5 11 -11 0 -5 4 -8 9 -5
4 3 19 -3 31 -14 25 -22 35 -26 25 -10 -3 5 -1 10 4 10 6 0 11 -5 11 -11 0 -7
9 -9 21 -6 16 4 19 2 15 -10 -5 -13 -4 -14 9 -3 10 8 15 9 15 1 0 -6 5 -11 11
-11 5 0 7 5 4 10 -11 18 4 11 25 -12 16 -17 20 -19 15 -5 -6 13 -3 16 9 11 9
-3 14 -9 11 -14 -2 -4 6 -5 19 -3 13 3 33 0 45 -6 12 -7 21 -8 21 -2 0 5 9 7
20 4 11 -3 18 -9 15 -13 -5 -8 51 -4 65 5 5 3 13 -3 19 -12 6 -10 11 -13 11
-7 0 12 27 15 50 7 26 -10 49 -10 44 -1 -8 13 29 6 38 -7 5 -6 8 -5 8 4 0 7 6
11 15 7 8 -3 15 -1 15 4 0 6 5 10 11 10 5 0 7 -5 4 -10 -3 -6 -1 -10 4 -10 6
0 11 4 11 9 0 6 12 6 31 1 27 -8 29 -7 18 6 -11 13 -9 14 14 3 14 -6 28 -18
31 -26 4 -9 2 -11 -7 -7 -9 6 -9 5 0 -8 7 -8 10 -18 6 -21 -3 -4 -1 -7 5 -7 6
0 9 -9 7 -20 -2 -12 3 -21 16 -25 11 -4 17 -10 14 -15 -8 -13 18 -18 38 -8 11
6 17 5 17 -2 0 -6 5 -8 10 -5 6 4 8 10 5 15 -3 5 4 7 15 5 11 -2 18 0 15 6 -4
5 -1 9 4 9 6 0 11 7 11 16 0 9 5 12 12 8 8 -5 9 -2 5 9 -3 9 -3 16 1 16 19 -3
25 2 12 11 -13 8 -13 10 1 10 9 0 23 8 30 17 12 14 12 16 0 8 -10 -6 -12 -4
-7 4 5 7 15 10 24 6 9 -3 13 -3 9 1 -4 4 1 16 10 27 13 15 14 19 3 13 -8 -4
-2 4 14 17 16 14 25 30 22 36 -4 6 -2 11 4 11 6 0 8 5 4 12 -4 6 -3 8 3 5 14
-9 37 19 27 34 -4 7 -3 9 3 6 14 -9 46 40 37 55 -4 7 -3 8 4 4 7 -4 12 -3 12
2 0 5 9 12 21 15 12 3 18 10 15 15 -3 6 -3 18 0 27 5 13 8 14 15 3 6 -9 9 -5
9 14 0 14 5 28 12 30 13 5 19 48 6 48 -5 0 -4 9 2 20 9 16 8 19 -6 13 -11 -4
-15 -2 -11 4 4 6 0 14 -9 17 -10 4 -13 2 -9 -7 4 -6 -2 -1 -13 13 -12 14 -24
21 -28 18 -4 -4 -13 0 -21 10 -9 10 -11 11 -7 2 7 -13 5 -13 -9 -1 -9 7 -14
18 -10 25 4 6 -1 5 -10 -3 -11 -9 -17 -10 -17 -2 0 6 -7 11 -15 11 -9 0 -18 6
-21 14 -3 7 -16 12 -30 10 -13 -1 -22 1 -20 4 4 7 -26 39 -31 35 -7 -7 -24 -2
-19 5 3 5 -5 8 -17 8 -13 -1 -21 4 -19 12 1 8 -2 11 -7 8 -12 -8 -42 4 -36 14
2 4 -7 6 -20 4 -18 -1 -25 3 -25 14 0 15 -2 15 -10 2 -8 -12 -10 -12 -10 5 0
17 -2 17 -10 5 -8 -13 -10 -12 -10 3 0 10 -8 17 -20 17 -11 0 -20 4 -20 9 0 5
-16 8 -35 6 -24 -2 -33 1 -29 8 3 7 -1 4 -10 -7 -8 -10 -20 -15 -26 -11 -6 3
-10 3 -9 -2 4 -21 -2 -34 -12 -27 -8 4 -8 0 0 -15 9 -16 9 -21 0 -21 -8 0 -7
-5 2 -17 12 -14 12 -16 -1 -9 -8 4 -6 0 4 -8 18 -15 15 -21 -7 -17 -5 1 1 -12
12 -28 15 -21 18 -32 10 -37 -8 -5 -10 -2 -5 7 4 8 -2 3 -13 -11 -19 -23 -26
-21 -22 4 1 5 -5 4 -13 -4 -9 -7 -16 -9 -16 -4 0 5 -5 2 -10 -6 -8 -12 -10
-12 -10 -1 0 10 -3 11 -14 2 -11 -9 -18 -8 -30 4 -15 15 -16 15 -16 0 0 -9 -5
-13 -10 -10 -6 4 -8 9 -6 13 2 4 -9 7 -25 8 -16 1 -26 -3 -22 -8 3 -6 -4 -5
-16 1 -12 7 -26 9 -31 6 -6 -3 -10 -2 -10 4 0 6 -7 8 -15 5 -9 -4 -15 0 -15 7
0 11 -3 11 -10 -1 -8 -12 -10 -12 -10 5 0 11 -4 16 -8 10 -9 -12 -38 -13 -49
-1 -5 5 -2 6 6 1 10 -6 12 -4 7 4 -5 7 -10 10 -13 7 -3 -3 -15 -1 -26 5 -15 9
-18 8 -12 -1 5 -7 -6 -5 -23 5 -17 10 -29 22 -26 26 2 4 -5 5 -16 2 -11 -3
-20 -1 -20 5 0 5 -11 13 -25 16 -17 4 -23 11 -18 19 4 7 0 6 -11 -2 -15 -12
-17 -12 -14 0 2 8 -4 13 -14 13 -10 -1 -18 5 -18 13 0 8 -5 11 -12 7 -7 -5 -9
-2 -5 9 4 11 2 14 -7 11 -14 -6 -46 21 -46 38 0 6 -6 6 -15 -2 -13 -10 -15 -9
-15 9 0 12 -4 19 -10 16 -5 -3 -10 0 -10 8 0 16 -41 57 -57 57 -7 0 -15 9 -18
20 -3 11 -11 20 -16 20 -5 0 -9 7 -9 15 0 8 -4 15 -10 15 -5 0 -10 6 -10 14 0
8 -7 17 -16 20 -9 4 -14 13 -10 22 3 8 2 12 -4 9 -6 -3 -10 1 -10 10 0 9 -4
13 -10 10 -6 -3 -7 1 -4 9 3 9 1 16 -6 16 -6 0 -8 5 -5 10 3 6 1 10 -5 10 -6
0 -9 4 -5 9 3 5 -2 16 -10 24 -8 9 -15 25 -15 36 0 12 -5 21 -12 21 -6 0 -8 3
-5 7 4 3 1 13 -6 21 -9 13 -9 14 0 8 9 -5 11 -2 7 8 -3 9 -11 13 -17 9 -7 -4
-8 0 -3 12 4 11 0 25 -11 37 -16 18 -16 19 3 12 17 -7 17 -6 5 9 -7 9 -10 17
-5 17 5 0 2 5 -6 10 -11 7 -11 10 -2 10 7 0 10 5 7 10 -4 6 -12 7 -18 4 -7 -4
-9 -4 -5 1 4 4 3 17 -3 29 -10 21 -10 21 7 1 15 -18 16 -18 10 -2 -3 10 -6 30
-6 43 0 17 -4 23 -12 18 -10 -5 -10 -4 -1 6 6 7 9 19 6 28 -5 11 -3 13 8 7 8
-5 6 0 -4 12 -14 16 -15 23 -6 29 8 5 10 3 4 -7 -5 -8 -4 -11 0 -7 5 5 10 20
11 35 2 21 1 24 -6 13 -8 -12 -10 -10 -10 8 0 12 6 22 13 22 8 0 7 4 -3 10
-10 6 -11 10 -2 10 6 0 12 9 12 21 0 13 -4 18 -12 13 -7 -4 -8 -3 -4 5 4 6 12
9 17 5 6 -3 8 5 5 20 -3 14 -1 26 3 26 5 0 7 11 6 25 -2 14 1 25 6 25 6 0 7 5
4 10 -3 6 -1 10 5 10 6 0 8 5 5 10 -4 6 -1 18 6 26 6 8 9 17 6 21 -4 3 1 12
11 19 9 7 17 23 17 36 1 13 6 22 13 20 10 -2 10 3 1 19 -8 15 -8 19 0 15 6 -4
11 -2 11 4 0 7 8 19 18 28 10 10 13 15 7 12 -6 -3 -2 3 8 13 11 9 15 17 11 17
-5 0 -1 5 9 11 9 5 17 17 17 24 0 8 7 15 15 15 8 0 15 5 15 11 0 5 -6 7 -12 3
-7 -5 2 8 21 29 19 20 38 34 43 31 4 -3 8 -1 8 5 0 6 12 22 28 37 15 15 20 23
12 18 -13 -7 -13 -5 -2 9 8 9 11 21 7 27 -3 5 -1 10 4 10 6 0 11 5 11 11 0 5
-4 8 -8 5 -4 -3 -7 8 -6 25 1 16 -2 29 -7 29 -5 0 -8 3 -8 8 4 21 -3 32 -18
32 -9 0 -13 3 -10 6 4 4 -2 15 -14 25 -14 12 -16 18 -7 22 8 4 7 6 -4 6 -10 1
-18 5 -18 11 0 5 -9 18 -21 29 -13 11 -18 24 -14 32 5 7 4 10 -2 6 -6 -4 -19
3 -29 16 -13 14 -14 18 -4 12 9 -6 7 -2 -3 8 -11 9 -26 17 -34 17 -8 0 -12 4
-8 9 3 6 -4 8 -15 6 -11 -2 -20 0 -20 5 0 6 -9 6 -23 1 -13 -5 -30 -5 -38 0
-11 5 -16 4 -16 -6z m77 -689 c0 -3 -4 -8 -10 -11 -5 -3 -10 -1 -10 4 0 6 5
11 10 11 6 0 10 -2 10 -4z m175 -1006 c10 -11 16 -20 13 -20 -3 0 -13 9 -23
20 -10 11 -16 20 -13 20 3 0 13 -9 23 -20z"/>
<path d="M1705 2329 c-4 -6 -5 -12 -2 -15 2 -3 7 2 10 11 7 17 1 20 -8 4z"/>
</g>
</svg>
